<?xml version="1.0" standalone="no"?>
<!DOCTYPE svg PUBLIC "-//W3C//DTD SVG 20010904//EN"
 "http://www.w3.org/TR/2001/REC-SVG-20010904/DTD/svg10.dtd">
<svg version="1.0" xmlns="http://www.w3.org/2000/svg"
 width="1000.000000pt" height="1000.000000pt" viewBox="0 0 1000.000000 1000.000000"
 preserveAspectRatio="xMidYMid meet">
<metadata>
Created by potrace 1.11, written by Peter Selinger 2001-2013
</metadata>
<g transform="translate(0.000000,1000.000000) scale(0.100000,-0.100000)"
fill="#000000" stroke="none">
<path d="M0 5000 l0 -5000 5000 0 5000 0 0 5000 0 5000 -5000 0 -5000 0 0
-5000z m3610 2356 l0 -334 78 -6 c216 -19 392 -51 597 -110 155 -44 178 -54
172 -69 -2 -6 -28 -110 -57 -229 -33 -140 -56 -218 -64 -218 -7 0 -39 9 -72
21 -115 40 -305 90 -421 110 -97 18 -160 22 -358 23 -215 0 -250 -2 -335 -22
-184 -43 -339 -143 -403 -260 -33 -60 -57 -158 -57 -233 0 -224 113 -369 395
-504 50 -23 196 -83 325 -133 582 -223 770 -323 956 -507 195 -192 278 -381
290 -660 26 -574 -295 -938 -922 -1047 l-124 -22 0 -388 0 -388 -250 0 -250 0
0 379 0 378 -107 7 c-174 11 -290 25 -418 51 -191 38 -562 172 -552 199 2 6
37 109 76 228 l73 218 36 -19 c63 -32 282 -108 402 -140 164 -43 298 -61 515
-68 303 -10 537 25 677 99 201 106 296 321 243 547 -45 188 -208 349 -488 481
-56 26 -219 92 -362 145 -561 210 -745 315 -901 509 -125 157 -180 300 -191
502 -26 476 204 841 639 1013 76 30 233 73 316 86 l42 7 0 344 0 344 250 0
250 0 0 -334z m4400 -5191 l0 -235 -1495 0 -1495 0 0 235 0 235 1495 0 1495 0
0 -235z"/>
</g>
</svg>
